<?xml version="1.0" encoding="utf-8"?>
<!-- Generator: Adobe Illustrator 26.4.1, SVG Export Plug-In . SVG Version: 6.00 Build 0)  -->
<svg version="1.1" id="Layer_1" xmlns="http://www.w3.org/2000/svg" xmlns:xlink="http://www.w3.org/1999/xlink" x="0px" y="0px"
	 viewBox="0 0 480 480" style="enable-background:new 0 0 480 480;" xml:space="preserve">
<style type="text/css">
	.st0{fill:#FFFFFF;}
	.st1{fill:#0091EA;}
	.st2{fill:#005082;}
	.st3{fill:#00B0FF;}
	.st4{fill:#9E9E9E;}
	.st5{fill:#40C4FF;}
	.st6{fill:#20E3FF;}
	.st7{fill:url(#SVGID_1_);}
	.st8{fill:#DD5A00;}
	.st9{fill:none;stroke:#231F20;stroke-width:0.25;stroke-miterlimit:10;}
	.st10{fill:#3E3E3E;}
	.st11{fill:#9D9D9D;}
	.st12{fill:#55BFED;}
	.st13{fill:#44A8DE;}
	.st14{fill:#398ACA;}
	.st15{fill:none;stroke:#808184;stroke-width:0.5;stroke-miterlimit:10;}
	.st16{fill:#666666;}
	.st17{fill:#231F20;}
	.st18{fill:#EFEFEF;}
	.st19{fill:#6E6E6E;}
	.st20{fill:#00B82E;}
	.st21{fill:#FFC700;}
	.st22{fill:none;stroke:#231F20;stroke-width:0.5;stroke-miterlimit:10;}
	.st23{opacity:0.7;}
	.st24{fill:#80D8FF;fill-opacity:0.7;}
	.st25{fill:#80D8FF;fill-opacity:0.7;stroke:#80D8FF;stroke-miterlimit:10;}
	.st26{fill:url(#SVGID_00000093874120598836699400000012261866037672011705_);}
	.st27{fill:url(#SVGID_00000003073294025139392660000004071050798575851407_);}
	.st28{fill:url(#SVGID_00000077295195570735998220000004432947370270594963_);}
	.st29{clip-path:url(#SVGID_00000153704089326746913320000000137822968620601732_);fill:#FFFFFF;}
	.st30{clip-path:url(#SVGID_00000153704089326746913320000000137822968620601732_);fill:#44A8DE;}
	.st31{clip-path:url(#SVGID_00000153704089326746913320000000137822968620601732_);fill:#55BFED;}
	.st32{clip-path:url(#SVGID_00000153704089326746913320000000137822968620601732_);fill:#398ACA;}
	.st33{fill:none;stroke:#55BFED;stroke-width:0.5;stroke-linecap:round;stroke-miterlimit:10;}
	.st34{fill:#398AC9;}
	.st35{fill:#58BEEC;}
	.st36{fill:#9D9C9D;}
	.st37{fill:none;stroke:#000000;stroke-width:0.3;}
	.st38{fill:none;stroke:#EC008C;stroke-width:2;stroke-miterlimit:10;}
	.st39{fill:#D1D3D4;}
	.st40{fill:none;stroke:#FFFFFF;stroke-miterlimit:10;}
	.st41{fill:none;stroke:#FFFFFF;stroke-width:0.75;stroke-miterlimit:10;}
</style>
<g>
	<path class="st0" d="M383.7,392.8V157l0,0v0L240,74.1L96.3,157v235.8l49.6,28.7V289.8l187.8-0.3l0.3,132L383.7,392.8z M145.9,240
		v-54.3l0,0l94.1-54.3l94.1,54.3l0,0V240H145.9z"/>
	<g>
		<path class="st3" d="M96.3,157L96.3,157l-56.9-32.8c-2.2,3.9-3.6,8.2-3.6,12.1v207.4c0,7.8,5.5,17.3,12.3,21.2l48.2,27.8V157z"/>
		<polygon class="st3" points="240,240 240,240 145.9,185.7 145.9,185.7 145.9,240 240,240 		"/>
		<path class="st3" d="M145.9,289.8v131.7l81.8,47.2c3.4,1.9,7.8,2.9,12.3,2.9v-182L145.9,289.8z"/>
	</g>
	<g>
		<path class="st5" d="M240,74.1l143.7,83l56.9-32.8c-2.2-3.8-5.3-7.2-8.6-9.1L252.3,11.3c-6.7-3.9-17.8-3.9-24.5,0L48.1,115
			c-3.4,1.9-6.4,5.3-8.6,9.1L96.3,157L240,74.1z"/>
		<polygon class="st5" points="240,131.4 145.9,185.7 145.9,185.7 240,240 334.1,185.7 		"/>
	</g>
	<g>
		<polygon class="st1" points="240,240 334.1,240 334.1,185.7 334.1,185.7 334.1,185.7 240,240 		"/>
		<path class="st1" d="M333.7,289.5l-93.7,0.2v182c4.4,0,8.9-1,12.3-2.9l81.8-47.2L333.7,289.5z"/>
		<path class="st1" d="M440.5,124.2L383.7,157l0,0v0l0,0v235.8l48.2-27.8c6.7-3.9,12.3-13.5,12.3-21.2V136.3
			C444.2,132.4,442.8,128,440.5,124.2z"/>
	</g>
</g>
</svg>
